<svg xmlns="http://www.w3.org/2000/svg" width="27.372" height="19.16" viewBox="0 0 27.372 19.16"><path fill="#FEDE00" d="M22.796 0H4.575A4.58 4.58 0 0 0 0 4.574v10.012a4.58 4.58 0 0 0 4.575 4.574h18.222a4.58 4.58 0 0 0 4.575-4.574V4.574A4.58 4.58 0 0 0 22.796 0m0 1.193c.764 0 1.461.264 2.027.692l-11.139 9.006L2.547 1.886a3.343 3.343 0 0 1 2.027-.692h18.222zm3.382 13.393a3.385 3.385 0 0 1-3.382 3.381H4.575a3.385 3.385 0 0 1-3.381-3.381V4.574c0-.669.201-1.29.537-1.815l11.58 9.363c.026.021.057.032.086.048.021.012.039.025.062.035.073.03.149.05.228.05s.154-.02.229-.05c.021-.01.041-.023.062-.035.028-.016.06-.026.085-.048l11.58-9.363c.337.525.538 1.146.538 1.815v10.012z"/></svg>