<svg xmlns="http://www.w3.org/2000/svg" width="24.365" height="29.854" viewBox="0 0 24.365 29.854"><path fill="#FEDE00" d="M12.182 0C5.465 0 0 5.465 0 12.182c0 3.131 1.194 6.111 3.372 8.4l8.045 8.079H7.82a.597.597 0 0 0 0 1.194h8.723a.598.598 0 0 0 0-1.194h-3.617l8.065-8.079.011-.01a12.13 12.13 0 0 0 3.363-8.391C24.365 5.465 18.898 0 12.182 0zm7.96 19.743l-7.972 7.983-7.943-7.979a10.932 10.932 0 0 1-3.034-7.566c0-6.059 4.929-10.988 10.988-10.988 6.061 0 10.99 4.93 10.99 10.988a10.927 10.927 0 0 1-3.029 7.562zm-7.96-14.396a6.062 6.062 0 0 0-6.054 6.056 6.061 6.061 0 0 0 6.054 6.054 6.061 6.061 0 0 0 6.055-6.054 6.062 6.062 0 0 0-6.055-6.056zm0 10.916a4.867 4.867 0 0 1-4.861-4.86 4.867 4.867 0 0 1 4.861-4.862 4.867 4.867 0 0 1 4.861 4.862 4.867 4.867 0 0 1-4.861 4.86z"/></svg>