<svg xmlns="http://www.w3.org/2000/svg" width="22.08" height="33.094" viewBox="0 0 22.08 33.094"><path fill="#FEDE00" d="M21.559 23.807l-5.813-1.706a.742.742 0 0 0-.553.06l-1.686.921A26.13 26.13 0 0 1 7.2 12.92a25.883 25.883 0 0 1-.688-2.477l1.754-.958a.743.743 0 0 0 .349-.434l1.705-5.813a.724.724 0 0 0-.492-.901L1.964.029a.728.728 0 0 0-.901.493c-4.069 13.873 3.906 28.472 17.779 32.542a.727.727 0 0 0 .901-.492l2.308-7.865a.725.725 0 0 0-.492-.9m-5.933-.228l4.826 1.416-1.893 6.452a24.546 24.546 0 0 1-8.528-4.813l5.595-3.055zM2.271 1.633l6.452 1.893-1.416 4.827-5.594 3.057c-.46-3.18-.304-6.493.558-9.777m-.295 11.288l3.219-1.759c.183.747.387 1.492.631 2.219a27.622 27.622 0 0 0 6.362 10.422l-3.285 1.795a24.934 24.934 0 0 1-6.927-12.677"/></svg>